<svg width="12" height="12" viewBox="0 0 12 12" fill="none" xmlns="http://www.w3.org/2000/svg">
<path d="M10.3477 2.0452C9.81049 1.50313 9.08915 1.18276 8.32675 1.14761C7.56436 1.11247 6.8166 1.36511 6.23175 1.85545C6.16448 1.90622 6.08344 1.9355 5.99925 1.93945C5.91454 1.93698 5.83283 1.90755 5.766 1.85545C5.18142 1.36483 4.43371 1.112 3.67134 1.14715C2.90897 1.1823 2.1877 1.50287 1.65075 2.0452C1.07325 2.6227 0.755249 3.3907 0.755249 4.20745C0.755249 5.0242 1.07325 5.7922 1.63125 6.3487L4.97775 10.2659C5.10385 10.4139 5.26056 10.5327 5.43705 10.6141C5.61354 10.6956 5.80561 10.7378 6 10.7378C6.19439 10.7378 6.38646 10.6956 6.56295 10.6141C6.73944 10.5327 6.89615 10.4139 7.02225 10.2659L10.3485 6.3697C10.6334 6.08642 10.8593 5.74946 11.0131 5.37832C11.167 5.00718 11.2457 4.60921 11.2447 4.20745C11.2454 3.80566 11.1665 3.40773 11.0125 3.03661C10.8586 2.66549 10.6326 2.32854 10.3477 2.0452Z" fill="white"/>
</svg>
