<svg width="1134" height="340" viewBox="0 0 1134 340" fill="none" xmlns="http://www.w3.org/2000/svg">
<path d="M8 171C8 263 84 339 176 339C268 339 344 263 344 171C344 79 268 4 176 4C84 4 8 79 8 171ZM238 249C199 225 149 219 91 232C77 234 75 214 87 212C151 197 205 204 249 231C260 238 249 255 238 249ZM255 204C210 176 141 168 88 184C71 189 65 163 81 159C142 141 217 150 269 182C283 191 269 213 255 204ZM80 133C63 139 52 110 71 103C130 85 230 88 292 125C309 134 293 162 275 152C221 120 131 117 80 133ZM459 224C442 224 426 218 412 204C411 204 411 205 411 205L395 224C394 225 394 226 395 227C413 243 435 251 459 251C493 251 514 232 514 204C514 180 499 167 464 158C435 151 430 146 430 136C430 126 440 120 453 120C466 120 478 125 492 135C492 135 493 136 494 136C495 136 495 135 495 135L509 115C510 114 510 114 509 113C493 100 474 93 453 93C422 93 400 112 400 139C400 168 420 177 452 185C480 191 484 197 484 207C484 218 474 224 459 224ZM554 147V134C554 133 553 132 552 132H526C525 132 524 133 524 134V281C524 282 525 283 526 283H552C553 283 554 282 554 281V235C564 246 575 251 590 251C617 251 644 230 644 190C644 150 617 130 590 130C575 130 564 135 554 147ZM584 225C566 225 553 210 553 190C553 170 566 156 584 156C602 156 614 170 614 190C614 210 602 225 584 225ZM652 191C652 225 679 251 714 251C749 251 776 224 776 190C776 156 750 130 715 130C680 130 652 157 652 191ZM682 190C682 170 695 156 714 156C733 156 747 171 747 191C747 211 734 225 715 225C696 225 682 210 682 190ZM822 132V103C822 102 822 101 821 101H795C794 101 793 102 793 103V132H780C779 132 778 133 778 134V156C778 157 779 158 780 158H793V216C793 239 804 251 827 251C836 251 845 249 852 245C853 245 853 244 853 243V222C853 221 853 220 852 220H850C845 223 839 224 834 224C826 224 822 220 822 212V158H852C853 158 854 157 854 156V134C854 133 853 132 852 132H822ZM951 129C951 118 955 114 964 114C969 114 974 114 979 116H980C980 116 981 115 981 114V93C981 92 981 91 980 91C975 89 968 88 958 88C934 88 922 102 922 127V132H909C908 132 907 133 907 134V156C907 157 908 158 909 158H922V247C922 248 923 249 924 249H950C951 249 951 248 951 247V158H976L1013 247C1009 256 1005 258 999 258C994 258 989 257 984 254H983L982 255L973 274C973 275 973 277 974 277C983 282 991 284 1001 284C1020 284 1031 275 1040 251L1085 135V133C1085 132 1084 132 1083 132H1056C1055 132 1055 133 1055 134L1027 212L997 134C997 133 996 132 995 132H951V129ZM868 132C867 132 866 133 866 134V247C866 248 867 249 868 249H894C895 249 895 248 895 247V134C895 133 895 132 894 132H868ZM862 99C862 109 871 118 881 118C891 118 899 109 899 99C899 89 891 81 881 81C871 81 862 89 862 99ZM1107 168C1117 168 1126 160 1126 150C1126 140 1117 132 1107 132C1097 132 1089 140 1089 150C1089 160 1097 168 1107 168ZM1107 134C1116 134 1124 141 1124 150C1124 159 1116 166 1107 166C1098 166 1091 159 1091 150C1091 141 1098 134 1107 134ZM1111 152C1114 151 1116 149 1116 146C1116 142 1112 140 1108 140H1100V159H1104V153H1108L1112 159H1117L1111 152ZM1108 143C1110 143 1112 144 1112 146C1112 148 1110 149 1108 149H1104V143H1108Z" fill="white"/>
</svg>
